<?xml version="1.0" encoding="utf-8"?>
<!-- Generator: Adobe Illustrator 21.0.0, SVG Export Plug-In . SVG Version: 6.00 Build 0)  -->
<svg version="1.1" id="Capa_1" xmlns="http://www.w3.org/2000/svg" xmlns:xlink="http://www.w3.org/1999/xlink" x="0px" y="0px"
	 viewBox="0 0 56.7 56.7" style="enable-background:new 0 0 56.7 56.7;" xml:space="preserve">
<style type="text/css">
	.st0{fill:#FFFFFF;}
	.st1{fill:#D13834;}
	.st2{fill:#F75B57;}
	.st3{fill:#4C312C;}
	.st4{fill:#994530;}
	.st5{fill:#659C35;}
</style>
<circle class="st0" cx="28.4" cy="28.3" r="26.9"/>
<g>
	<path class="st1" d="M30.3,17c-1.3,0.3-2.7,0.3-4,0c-6.8-1.7-12.5-1-12.5,11.8c0,6.6,6.2,15.1,12.7,13.7c1.2-0.3,2.4-0.3,3.5,0
		c6.5,1.5,12.6-7.1,12.7-13.7C42.9,16,37.1,15.3,30.3,17z"/>
	<path class="st2" d="M17.1,25.6c-0.4,0-0.6-0.3-0.6-0.6c0-3.5,2.6-6.3,5.7-6.3c0.4,0,0.6,0.3,0.6,0.6c0,0.3-0.3,0.6-0.6,0.6
		c-2.4,0-4.4,2.3-4.4,5.1C17.7,25.3,17.4,25.6,17.1,25.6z"/>
	<path class="st3" d="M28.3,19.4c-0.3,0-0.6-0.3-0.6-0.6c-0.1-2.7-1.1-6-3.8-7.5c-0.3-0.2-0.4-0.5-0.3-0.9c0.2-0.3,0.5-0.4,0.9-0.3
		c3.1,1.7,4.3,5.5,4.4,8.5C28.9,19.1,28.7,19.4,28.3,19.4L28.3,19.4z"/>
	<path class="st4" d="M28.2,21.7c-1.1,0-2.1-0.4-2.8-1.2c-0.2-0.2-0.2-0.6,0-0.9c0.2-0.2,0.6-0.2,0.9,0c0.5,0.5,1.2,0.8,1.9,0.8
		c0.7,0,1.4-0.3,1.9-0.8c0.2-0.2,0.6-0.2,0.9,0c0.2,0.2,0.2,0.6,0,0.9C30.3,21.3,29.3,21.7,28.2,21.7z"/>
	<path class="st5" d="M27.7,15l0.4-2.6c0.4-2.7,2.6-4.9,5.3-5.3L36,6.7l-0.4,2.6c-0.4,2.7-2.6,4.9-5.3,5.3L27.7,15z"/>
</g>
</svg>
