<?xml version="1.0" encoding="utf-8"?>
<!-- Generator: Adobe Illustrator 21.0.0, SVG Export Plug-In . SVG Version: 6.00 Build 0)  -->
<svg version="1.1" id="Capa_1" xmlns="http://www.w3.org/2000/svg" xmlns:xlink="http://www.w3.org/1999/xlink" x="0px" y="0px"
	 viewBox="0 0 56.7 56.7" style="enable-background:new 0 0 56.7 56.7;" xml:space="preserve">
<style type="text/css">
	.st0{fill:#FFFFFF;}
	.st1{fill:#583E68;}
	.st2{fill:#6A3311;}
	.st3{fill:#659C35;}
	.st4{fill:#6F58A8;}
</style>
<circle class="st0" cx="28.4" cy="28.3" r="26.9"/>
<g>
	<path class="st1" d="M40.7,22.6C40.7,22.6,40.7,22.6,40.7,22.6L40.7,22.6C40.7,22.6,40.7,22.6,40.7,22.6c-0.6-0.4-0.9-1.1-0.6-1.6
		c-0.3,0.4-1.1,0.4-1.7,0c-0.6-0.4-0.9-1.1-0.6-1.6c-0.3,0.4-1.1,0.4-1.7,0c-0.6-0.4-0.9-1.1-0.6-1.6c-0.3,0.4-0.9,0.4-1.5,0.1
		c-0.9,0.6-1.8,1.5-2.9,2.7c0,0-4.6,4.3-11.1,5.5c-0.6,0.1-1.2,0.3-1.8,0.5c-0.3,0.1-0.8,0.4-0.8,0.4c-3.8,2.1-5.9,6.6-4.7,11
		c1.1,4,4.5,6.7,8.3,7.1c1.8,0.2,3.5-0.2,5.1-0.9c3.6-1.7,10.9-6.5,13.9-18.9c0,0,0.5-1.1,0.8-2.6C40.9,22.7,40.8,22.6,40.7,22.6z"
		/>
	<path class="st2" d="M40.6,16.1c-0.3,0-0.6-0.3-0.6-0.6c0-0.3,0.3-0.6,0.6-0.6c1.1,0,2-0.3,2.4-0.9c0.3-0.4,0.3-0.9,0-1.6
		c-0.1-0.3,0-0.6,0.3-0.7c0.3-0.1,0.6,0,0.7,0.3c0.5,1.3,0.3,2.1-0.1,2.6C43.3,15.6,42.1,16.1,40.6,16.1z"/>
	<path class="st3" d="M34,17.9c-0.6-0.4-0.7-1.2-0.3-1.7c0.4-0.5,1.2-0.7,1.7-0.3c1.2-1.7,3.4-1.6,5.2-0.3c1.8,1.3,2.6,3.2,1.4,5
		c0.6,0.4,0.7,1.2,0.3,1.7s-1.1,0.7-1.7,0.3l0,0c-0.6-0.4-0.9-1.1-0.6-1.6c-0.3,0.4-1.1,0.4-1.7,0c-0.6-0.4-0.9-1.1-0.6-1.6
		c-0.3,0.4-1.1,0.4-1.7,0c-0.6-0.4-0.9-1.1-0.6-1.6C35.4,18.3,34.6,18.3,34,17.9"/>
	<path class="st4" d="M17,40.5c-0.2,0-0.4-0.1-0.5-0.3C15.1,38,15,35,16.1,32.5c0.1-0.3,0.5-0.4,0.8-0.3s0.4,0.5,0.3,0.8
		c-1,2.2-0.8,4.8,0.3,6.7c0.2,0.3,0.1,0.6-0.2,0.8C17.2,40.5,17.1,40.5,17,40.5z"/>
	<path class="st4" d="M17.7,31.4c-0.1,0-0.3,0-0.4-0.1c-0.2-0.2-0.3-0.6-0.1-0.8c0.7-0.8,1.6-1.5,2.5-1.8c0.3-0.1,0.6,0,0.7,0.3
		c0.1,0.3,0,0.6-0.3,0.7c-0.8,0.3-1.5,0.9-2.1,1.5C18.1,31.4,17.9,31.4,17.7,31.4z"/>
</g>
</svg>
