<?xml version="1.0" encoding="utf-8"?>
<!-- Generator: Adobe Illustrator 21.0.0, SVG Export Plug-In . SVG Version: 6.00 Build 0)  -->
<svg version="1.1" id="Capa_1" xmlns="http://www.w3.org/2000/svg" xmlns:xlink="http://www.w3.org/1999/xlink" x="0px" y="0px"
	 viewBox="0 0 56.7 56.7" style="enable-background:new 0 0 56.7 56.7;" xml:space="preserve">
<style type="text/css">
	.st0{fill:#FFFFFF;}
	.st1{fill:#F9E280;}
	.st2{fill:#F9D70B;}
	.st3{fill:#E8C52E;}
	.st4{fill:#B58C30;}
</style>
<circle class="st0" cx="28.4" cy="28.3" r="26.9"/>
<g>
	<g>
		<path class="st1" d="M43.8,15.3c-0.1-0.2-0.2-0.4-0.3-0.6c-0.4-0.7-0.9-1.3-1.4-1.9c1.4,5.7-1,11.7-4.6,15.6
			c-7.2,7.9-14,10.6-18.7,11.1c-1.1,0.5-2.3,0.8-3.6,1.1c-0.1,0-0.1,0-0.2,0c0.6,0.1,1.4,0.2,2.4,0.2c4.6,0,12.3-1.8,21.1-11.5
			C41.8,25.7,44.1,20.5,43.8,15.3z"/>
		<path class="st1" d="M13.2,40.1l0,0.1c0,0,0.2,0.1,0.4,0.1C13.5,40.2,13.3,40.2,13.2,40.1z"/>
	</g>
	<g>
		<path class="st2" d="M15.3,40.6c0.3-0.1,0.6-0.2,0.9-0.2C15.9,40.5,15.6,40.6,15.3,40.6z"/>
		<path class="st3" d="M42,12.7l-2-3.2l-1.4,0.9l1.7,3.2c0.1,0.5,0.3,0.9,0.3,1.4c0,6.8-5.4,13.9-13.3,19.4c-3.2,2.3-5.7,3.9-8.4,5
			c0,0-0.1,0-0.1,0c0,0,0,0,0,0c4.8-0.5,11.6-3.1,18.7-11.1c3.5-3.9,5.9-9.9,4.6-15.6C42.1,12.8,42.1,12.7,42,12.7z"/>
		<path class="st2" d="M17,40.2C17.1,40.2,17.1,40.1,17,40.2C17.1,40.1,17.1,40.2,17,40.2z"/>
		<path class="st2" d="M43.8,15.2C43.8,15.2,43.8,15.3,43.8,15.2c0.3,5.3-2,10.5-5.2,14.1C29.8,39,22.1,40.8,17.5,40.8
			c-0.9,0-1.7-0.1-2.4-0.2c0.1,0,0.1,0,0.2,0c-0.7,0.2-1.3,0-1.7-0.3c-0.2-0.1-0.4-0.1-0.4-0.1l0-0.1c-0.6-0.5-1-1-1.2-1
			c-0.5,0-0.8,1-0.8,1.6c5.6,5.9,14,4.6,22.8-0.6C43.8,34.3,48.1,23.3,43.8,15.2L43.8,15.2z"/>
	</g>
	<path class="st4" d="M41.3,14.8l1-0.2c0.5-0.1,0.7-0.6,0.4-1c-0.2-0.3-0.4-0.6-0.7-0.9c0,0,0,0,0-0.1l-1.6-2.6
		c-0.2-0.3-0.6-0.4-0.9-0.2l-0.4,0.2c-0.3,0.2-0.4,0.5-0.2,0.8l1.4,2.7c0,0,0,0.1,0,0.1c0.1,0.2,0.2,0.4,0.2,0.7
		C40.7,14.7,41,14.9,41.3,14.8z"/>
</g>
</svg>
