<?xml version="1.0" encoding="utf-8"?>
<!-- Generator: Adobe Illustrator 21.0.0, SVG Export Plug-In . SVG Version: 6.00 Build 0)  -->
<svg version="1.1" id="Capa_1" xmlns="http://www.w3.org/2000/svg" xmlns:xlink="http://www.w3.org/1999/xlink" x="0px" y="0px"
	 viewBox="0 0 56.7 56.7" style="enable-background:new 0 0 56.7 56.7;" xml:space="preserve">
<style type="text/css">
	.st0{fill:#FFFFFF;}
	.st1{fill:#003879;}
	.st2{fill:#1A49C1;}
	.st3{fill:#415CCE;}
	.st4{fill:#121C60;}
	.st5{fill:#0A1135;}
	.st6{fill:#3265D6;}
	.st7{fill:#447CE0;}
	.st8{fill:#1951A3;}
</style>
<circle class="st0" cx="28.4" cy="28.3" r="26.9"/>
<g>
	<path class="st1" d="M36.3,14.4c-4.8,0-8.8,3.9-8.8,8.8c0,1.4,0.4,2.8,1,4c1-0.4,2-0.6,3.1-0.6c3.4,0,6.3,1.9,7.8,4.8
		c3.3-1.2,5.7-4.4,5.7-8.2C45.1,18.3,41.1,14.4,36.3,14.4z"/>
	<path class="st2" d="M22.8,35.3c0-3.6,2.2-6.7,5.4-8.1c-0.6-4.3-4.2-7.5-8.7-7.5c-4.8,0-8.8,3.9-8.8,8.8s3.9,8.8,8.8,8.8
		c1.2,0,2.3-0.2,3.4-0.7C22.9,36.2,22.8,35.8,22.8,35.3z"/>
	<circle class="st3" cx="31.7" cy="35.3" r="9.5"/>
	<path class="st4" d="M28.9,33.2c-0.2,0-0.4-0.1-0.5-0.3c-0.2-0.3-0.1-0.7,0.2-0.9l1.8-1.3c0.7-0.5,1.7-0.5,2.4,0.1l1.4,1.2
		c0.3,0.2,0.3,0.6,0.1,0.9c-0.2,0.3-0.6,0.3-0.9,0.1l-1.4-1.2c-0.2-0.2-0.6-0.2-0.8,0l-1.8,1.3C29.1,33.1,29,33.2,28.9,33.2z"/>
	<path class="st4" d="M29.2,30.9h-1.5c-0.4,0-0.6-0.3-0.6-0.6c0-0.4,0.3-0.6,0.6-0.6h1.5c0.3,0,0.5-0.2,0.5-0.3l0.3-1.1
		c0.1-0.3,0.4-0.6,0.8-0.5c0.3,0.1,0.6,0.4,0.5,0.8L31,29.7C30.8,30.4,30,30.9,29.2,30.9z"/>
	<path class="st4" d="M35.1,30.9C35.1,30.9,35.1,30.9,35.1,30.9l-1.9-0.2c-0.9-0.1-1.5-0.7-1.6-1.4l-0.1-0.9c0-0.4,0.2-0.7,0.6-0.7
		c0.4,0,0.7,0.2,0.7,0.6l0.1,0.9c0,0,0.2,0.2,0.4,0.2l1.9,0.2c0.4,0,0.6,0.3,0.6,0.7C35.7,30.6,35.4,30.9,35.1,30.9z"/>
	<path class="st4" d="M16.7,26.4c-0.2,0-0.4-0.1-0.5-0.3c-0.2-0.3-0.1-0.7,0.2-0.9l1.8-1.3c0.7-0.5,1.7-0.5,2.4,0.1l1.4,1.2
		c0.3,0.2,0.3,0.6,0.1,0.9s-0.6,0.3-0.9,0.1l-1.4-1.2c-0.2-0.2-0.6-0.2-0.8,0l-1.8,1.3C17,26.4,16.9,26.4,16.7,26.4z"/>
	<path class="st4" d="M17.1,24.1h-1.5c-0.4,0-0.6-0.3-0.6-0.6c0-0.4,0.3-0.6,0.6-0.6h1.5c0.3,0,0.5-0.2,0.5-0.3l0.3-1.1
		c0.1-0.3,0.4-0.6,0.8-0.5c0.3,0.1,0.6,0.4,0.5,0.8l-0.3,1.1C18.7,23.6,17.9,24.1,17.1,24.1z"/>
	<path class="st4" d="M23,24.1C23,24.1,23,24.1,23,24.1L21.1,24c-0.9-0.1-1.5-0.7-1.6-1.4l-0.1-0.9c0-0.4,0.2-0.7,0.6-0.7
		c0.4,0,0.7,0.2,0.7,0.6l0.1,0.9c0,0,0.2,0.2,0.4,0.2l1.9,0.2c0.4,0,0.6,0.3,0.6,0.7C23.6,23.9,23.3,24.1,23,24.1z"/>
	<path class="st5" d="M33.5,21c-0.2,0-0.4-0.1-0.5-0.3c-0.2-0.3-0.1-0.7,0.2-0.9l1.8-1.3c0.7-0.5,1.7-0.5,2.4,0.1l1.4,1.2
		c0.3,0.2,0.3,0.6,0.1,0.9c-0.2,0.3-0.6,0.3-0.9,0.1l-1.4-1.2c-0.2-0.2-0.6-0.2-0.8,0l-1.8,1.3C33.7,20.9,33.6,21,33.5,21z"/>
	<path class="st5" d="M33.8,18.7h-1.5c-0.4,0-0.6-0.3-0.6-0.6c0-0.4,0.3-0.6,0.6-0.6h1.5c0.3,0,0.5-0.2,0.5-0.3l0.3-1.1
		c0.1-0.3,0.4-0.6,0.8-0.5c0.3,0.1,0.6,0.4,0.5,0.8l-0.3,1.1C35.4,18.2,34.6,18.7,33.8,18.7z"/>
	<path class="st5" d="M39.7,18.7C39.7,18.7,39.7,18.7,39.7,18.7l-1.9-0.2c-0.9-0.1-1.5-0.7-1.6-1.4l-0.1-0.9c0-0.4,0.2-0.7,0.6-0.7
		c0.4,0,0.7,0.2,0.7,0.6l0.1,0.9c0,0,0.2,0.2,0.4,0.2l1.9,0.2c0.4,0,0.6,0.3,0.6,0.7C40.3,18.4,40,18.7,39.7,18.7z"/>
	<path class="st6" d="M15.3,33.2c-0.1,0-0.2,0-0.3-0.1c-2.7-1.6-2.3-5.9-2.3-6c0-0.4,0.4-0.6,0.7-0.6c0.4,0,0.6,0.3,0.6,0.7
		c0,0-0.3,3.6,1.7,4.8c0.3,0.2,0.4,0.6,0.2,0.9C15.7,33.1,15.5,33.2,15.3,33.2z"/>
	<path class="st7" d="M26.4,40.3c-0.1,0-0.2,0-0.3-0.1c-2.7-1.6-2.3-5.9-2.3-6c0-0.4,0.4-0.6,0.7-0.6c0.4,0,0.6,0.3,0.6,0.7
		c0,0-0.3,3.6,1.7,4.8c0.3,0.2,0.4,0.6,0.2,0.9C26.9,40.2,26.7,40.3,26.4,40.3z"/>
	<path class="st8" d="M29.9,25.6c-0.2,0-0.4-0.1-0.5-0.3c-1.8-2.7,0.4-6.3,0.5-6.5c0.2-0.3,0.6-0.4,0.9-0.2c0.3,0.2,0.4,0.6,0.2,0.9
		c0,0-1.9,3.1-0.5,5.1c0.2,0.3,0.1,0.7-0.2,0.9C30.2,25.6,30,25.6,29.9,25.6z"/>
</g>
</svg>
