<?xml version="1.0" encoding="utf-8"?>
<!-- Generator: Adobe Illustrator 21.0.0, SVG Export Plug-In . SVG Version: 6.00 Build 0)  -->
<svg version="1.1" id="Capa_1" xmlns="http://www.w3.org/2000/svg" xmlns:xlink="http://www.w3.org/1999/xlink" x="0px" y="0px"
	 viewBox="0 0 56.7 56.7" style="enable-background:new 0 0 56.7 56.7;" xml:space="preserve">
<style type="text/css">
	.st0{fill:#FFFFFF;}
	.st1{fill:#88C057;}
	.st2{fill:#659C35;}
	.st3{fill:#436B1C;}
</style>
<circle class="st0" cx="28.4" cy="28.3" r="26.9"/>
<g>
	<path class="st1" d="M37.5,20.5c0-0.6-0.3-1-0.8-1.3c0.2-0.5,0.3-1,0.3-1.5c0-1.9-1.6-3.4-3.5-3.4c-0.5,0-1,0.1-1.4,0.3
		c-0.5-0.7-1.4-1.2-2.3-1.2c-1.1,0-2,0.6-2.5,1.4c-0.5-0.4-1.2-0.6-1.9-0.6c-1.8,0-3.3,1.4-3.3,3.2c0,0.1,0,0.3,0,0.4
		c-1.3,0.4-2.2,1.6-2.2,3c0,1.1,0.6,2.1,1.4,2.7c-0.3,0.5-0.5,1-0.5,1.6c0,1.5,1.3,2.8,2.8,2.8c0.7,0,1.3-0.2,1.7-0.6
		c0.6,0.9,1.7,1.4,2.8,1.4c1.2,0,2.3-0.6,3-1.6c0.4,0.7,1.2,1.2,2.1,1.2c1.3,0,2.4-1.1,2.4-2.4c0-0.3-0.1-0.6-0.2-0.8
		C36.4,24.8,37,24,37,23c0-0.5-0.1-0.9-0.4-1.3C37.2,21.5,37.5,21,37.5,20.5z"/>
	<path class="st2" d="M24.9,27.7c-0.4,0.2-0.7,0.2-1.1,0.2c-1.6,0-2.8-1.2-2.8-2.8c0-0.6,0.2-1.2,0.5-1.6C20.6,23,20,22,20,20.9
		c0-0.5,0.1-1,0.4-1.5c-0.9-0.6-2.2-0.4-3,0.4c-0.1,0.1-0.1,0.1-0.2,0.2c-0.9-0.4-2-0.3-2.8,0.5c-0.6,0.6-0.8,1.4-0.7,2.1
		c-0.4,0.1-0.8,0.3-1.2,0.6c-0.8,0.8-0.8,2.1,0,2.9c0.3,0.3,0.8,0.5,1.2,0.6c-0.1,0.8,0.1,1.6,0.7,2.2c0.7,0.6,1.6,0.9,2.4,0.7
		c-0.2,0.6,0,1.2,0.5,1.7c0.7,0.7,1.8,0.7,2.5,0c0.2-0.2,0.3-0.3,0.4-0.5c0.6,0.3,1.4,0.1,1.9-0.4c0.2-0.2,0.4-0.5,0.5-0.9
		c0.4,0.1,0.8,0,1.1-0.3c0.3-0.3,0.4-0.7,0.3-1.1C24.4,28.1,24.6,27.9,24.9,27.7z"/>
	<path class="st2" d="M43.3,23.6c-0.1-0.1-0.1-0.1-0.2-0.2c0.4-0.9,0.3-2-0.5-2.7c-0.6-0.6-1.4-0.8-2.2-0.7
		c-0.1-0.4-0.3-0.8-0.6-1.1c-0.8-0.8-2.2-0.8-3,0c-0.1,0.1-0.1,0.1-0.1,0.2c0,0,0,0.1-0.1,0.1c0.5,0.3,0.8,0.7,0.8,1.3
		c0,0.6-0.3,1.1-0.8,1.3c0.2,0.4,0.4,0.8,0.4,1.3c0,1-0.6,1.8-1.5,2.2c0.1,0.3,0.2,0.5,0.2,0.8c0,1.3-1.1,2.4-2.4,2.4
		c-0.3,0-0.6-0.1-0.9-0.2c0,0,0,0.1,0.1,0.1c0.2,0.2,0.6,0.4,0.9,0.5c-0.1,0.4,0,0.8,0.3,1.1c0.3,0.3,0.7,0.4,1.1,0.3
		c0.1,0.4,0.3,0.7,0.6,1c1,1,2.7,1,3.7,0c0.3-0.3,0.5-0.6,0.6-0.9c0.6,0.1,1.3-0.1,1.8-0.6c0.6-0.6,0.7-1.3,0.5-2
		c0.5-0.1,0.9-0.3,1.3-0.7C44.3,26,44.3,24.5,43.3,23.6z"/>
	<path class="st3" d="M34.8,30.2c-0.4,0.1-0.8,0-1.1-0.3c-0.2-0.2-0.3-0.4-0.3-0.6c0-0.1-0.1-0.3-0.1-0.4c-2.2,2.3-3.8,6.5-3.8,6.5
		c0.7-2.6,0.6-5.2,0.4-7c-0.5,0.2-1,0.4-1.6,0.4c-0.5,0-1.1-0.1-1.5-0.3c1,3.5,0.4,9.2,0.4,9.2c-1.1-4.2-3.4-6.9-4.5-8
		c-0.1,0.1-0.1,0.1-0.2,0.2c-0.1,0.1-0.2,0.3-0.3,0.4c-0.5,0.5-1.3,0.6-1.9,0.4c-0.1,0.2-0.2,0.4-0.4,0.5c-0.2,0.2-0.4,0.3-0.6,0.4
		c2.8,0,6.1,5.7,6.5,11.7c0,0.4,0.4,0.8,0.8,0.8h2.8c0.4,0,0.8-0.3,0.8-0.8c0.3-2.3,1.1-11.9,5.5-11.9c-0.2-0.1-0.3-0.2-0.4-0.3
		C35.1,30.9,34.9,30.5,34.8,30.2z"/>
	<path class="st2" d="M25.2,21.3c-0.1,0-0.1,0-0.2,0c-1.4-0.6-2.1-2.2-1.6-3.6c0.6-1.4,2.2-2.1,3.6-1.6c0.3,0.1,0.4,0.4,0.3,0.7
		c-0.1,0.3-0.4,0.4-0.7,0.3c-0.8-0.3-1.8,0.1-2.1,0.9c-0.3,0.8,0.1,1.8,0.9,2.1c0.3,0.1,0.4,0.4,0.3,0.7
		C25.7,21.2,25.4,21.3,25.2,21.3z"/>
	<path class="st1" d="M39.7,27.2c-0.3,0-0.7-0.1-1-0.2c-0.7-0.3-1.2-0.8-1.5-1.5c-0.1-0.3,0-0.6,0.3-0.7c0.3-0.1,0.6,0,0.7,0.3
		c0.2,0.4,0.5,0.7,0.9,0.9c0.4,0.2,0.9,0.1,1.3,0c0.4-0.2,0.7-0.5,0.9-0.9c0.2-0.4,0.2-0.9,0-1.3c-0.1-0.3,0-0.6,0.3-0.7
		c0.3-0.1,0.6,0,0.7,0.3c0.3,0.7,0.3,1.4,0,2.1c-0.3,0.7-0.8,1.2-1.5,1.5C40.5,27.1,40.1,27.2,39.7,27.2z"/>
	<path class="st2" d="M32,25.8c-1,0-1.9-0.5-2.4-1.4c-0.2-0.3-0.1-0.6,0.2-0.8c0.3-0.2,0.6-0.1,0.8,0.2c0.2,0.4,0.6,0.7,1,0.8
		c0.4,0.1,0.9,0.1,1.2-0.2s0.7-0.6,0.8-1c0.1-0.4,0.1-0.9-0.2-1.2c-0.2-0.3-0.1-0.6,0.2-0.8c0.3-0.2,0.6-0.1,0.8,0.2
		c0.4,0.6,0.5,1.4,0.3,2.1c-0.2,0.7-0.7,1.3-1.3,1.7C32.9,25.7,32.4,25.8,32,25.8z"/>
	<path class="st2" d="M30,22.8c-0.4,0-0.8-0.1-1.2-0.3c-1.4-0.7-2-2.3-1.3-3.7c0.1-0.3,0.5-0.4,0.8-0.3c0.3,0.1,0.4,0.5,0.3,0.8
		c-0.4,0.8-0.1,1.8,0.8,2.2c0.8,0.4,1.8,0.1,2.2-0.8c0.1-0.3,0.5-0.4,0.8-0.3c0.3,0.1,0.4,0.5,0.3,0.8C32,22.2,31,22.8,30,22.8z"/>
	<path class="st2" d="M25.7,25.9c-0.4,0-0.8-0.1-1.1-0.2c-1.4-0.6-2-2.3-1.4-3.7c0.1-0.3,0.5-0.4,0.7-0.3c0.3,0.1,0.4,0.5,0.3,0.7
		c-0.4,0.8,0,1.8,0.8,2.2c0.4,0.2,0.8,0.2,1.3,0c0.4-0.2,0.7-0.5,0.9-0.9c0.1-0.3,0.5-0.4,0.7-0.3c0.3,0.1,0.4,0.5,0.3,0.7
		c-0.3,0.7-0.8,1.2-1.5,1.5C26.4,25.9,26,25.9,25.7,25.9z"/>
	<path class="st2" d="M32,19.8c-0.1,0-0.2,0-0.3,0c-0.7-0.1-1.4-0.4-1.9-1c-0.2-0.2-0.2-0.6,0.1-0.8c0.2-0.2,0.6-0.2,0.8,0.1
		c0.3,0.3,0.7,0.5,1.1,0.6c0.4,0,0.9-0.1,1.2-0.4c0.7-0.6,0.8-1.6,0.2-2.3c-0.2-0.2-0.2-0.6,0.1-0.8c0.2-0.2,0.6-0.2,0.8,0.1
		c1,1.2,0.8,2.9-0.4,3.9C33.2,19.5,32.6,19.8,32,19.8z"/>
	<path class="st1" d="M17.5,26.6c-0.3,0-0.7-0.1-1-0.2c-1.4-0.6-2.1-2.2-1.5-3.6c0.1-0.3,0.4-0.4,0.7-0.3c0.3,0.1,0.4,0.4,0.3,0.7
		c-0.3,0.8,0.1,1.8,0.9,2.1c0.8,0.3,1.8-0.1,2.1-0.9c0.1-0.3,0.4-0.4,0.7-0.3c0.3,0.1,0.4,0.4,0.3,0.7
		C19.7,25.9,18.6,26.6,17.5,26.6z"/>
</g>
</svg>
