<?xml version="1.0" encoding="utf-8"?>
<!-- Generator: Adobe Illustrator 21.0.0, SVG Export Plug-In . SVG Version: 6.00 Build 0)  -->
<svg version="1.1" id="Capa_1" xmlns="http://www.w3.org/2000/svg" xmlns:xlink="http://www.w3.org/1999/xlink" x="0px" y="0px"
	 viewBox="0 0 56.7 56.7" style="enable-background:new 0 0 56.7 56.7;" xml:space="preserve">
<style type="text/css">
	.st0{fill:#FFFFFF;}
	.st1{fill:#88C057;}
	.st2{fill:#A4E869;}
	.st3{fill:#659C35;}
	.st4{fill:#F2681C;}
	.st5{fill:#ED8F20;}
	.st6{fill:#DD7017;}
</style>
<circle class="st0" cx="28.4" cy="28.3" r="26.9"/>
<g>
	<path class="st1" d="M32.6,23.7c0,0,6.9-4.1,11.2,1.7c0,0,1.1,1.3,0.3,2.6c-0.9,1.2-2.8,1-3.7-0.3C39.5,26.4,37.4,25,32.6,23.7z"/>
	<path class="st1" d="M32.6,23.7c0,0,4.2-6.8-1.2-10.7c0,0-1.8-1.6-3.4-1c-1.5,0.5-1.5,2.6-0.2,3.4C29.4,16.2,31.4,18.4,32.6,23.7z"
		/>
	<path class="st1" d="M43.7,25.8c0,0,0,0,0.1,0.1c0.1-0.1,0.3-0.3,0.4-0.4c1.2-1.5,0.2-2.6,0.2-2.6C41,17.6,33,23.3,33,23.3
		c0.4,0,0.7,0.1,1.1,0.1C36.3,22.5,40.6,21.7,43.7,25.8z"/>
	<path class="st2" d="M31.4,13c4.1,3.1,2.6,7.8,1.7,9.8c0,0,0,0.1,0,0.1c0,0,5.7-7.9,0.9-11c0,0-1.5-1.3-3.3-0.4
		c-0.3,0.2-0.6,0.4-0.8,0.6C30.7,12.4,31.4,13,31.4,13z"/>
	<path class="st3" d="M41.4,14.5c-2-1.3-4.6,0.7-4.6,0.7c-0.4,0.5-0.8,1.1-1.2,1.6c-0.4,2.6-2,5.4-2.9,6.6c0,0.2-0.1,0.3-0.1,0.4
		c1-0.7,3.8-2.4,6.6-2.9c0.7-0.5,1.3-1,1.9-1.5C44.2,16.5,41.4,14.5,41.4,14.5z"/>
	<path class="st2" d="M32.6,23.7c0,0,6.9-4.1,11.2,1.7c0,0,1.1,1.3,0.3,2.6c-0.9,1.2-2.8,1-3.7-0.3C39.5,26.4,37.4,25,32.6,23.7z"/>
	<g>
		<path class="st4" d="M33,23.1c-0.2,0.3-0.3,0.5-0.3,0.5s0.3-0.2,0.7-0.4C33.3,23.2,33.1,23.1,33,23.1z"/>
		<path class="st5" d="M36.6,26.8c0.2-0.7,0.2-1.3,0.1-1.9c-1-0.4-2.3-0.9-3.9-1.3c-0.4-1.8-0.9-3.2-1.4-4.3
			c-0.7-0.3-1.5-0.3-2.3-0.1C26.5,20.1,15.4,36,13.4,41.6c-0.2,0.5,0.2,0.9,0.7,0.7C19.7,40.3,35.7,29.3,36.6,26.8z"/>
	</g>
	<g>
		<path class="st6" d="M17.9,37.1c-0.4-0.2-0.7-0.4-1.1-0.6c-0.2-0.2-0.6-0.1-0.8,0.1s-0.1,0.6,0.1,0.8c0.4,0.3,0.8,0.5,1.3,0.8
			c0.1,0,0.2,0.1,0.2,0.1c0.2,0,0.4-0.1,0.5-0.3C18.3,37.6,18.2,37.2,17.9,37.1z"/>
		<path class="st6" d="M35.1,26.5c-1.1-0.4-2.2-1.2-3.1-2.3c-0.2-0.2-0.6-0.3-0.8-0.1c-0.2,0.2-0.3,0.6-0.1,0.8
			c1.1,1.2,2.3,2.1,3.6,2.6c0.1,0,0.1,0,0.2,0c0.2,0,0.4-0.1,0.5-0.4C35.5,26.9,35.4,26.6,35.1,26.5z"/>
		<g>
			<path class="st6" d="M26,22.1c0.2,0.1,0.4,0.2,0.4,0.5c0.1,0.9,0.6,2.1,1.4,2.7c0.3,0.2,0.3,0.5,0.1,0.8
				c-0.1,0.2-0.3,0.2-0.5,0.2c-0.1,0-0.2,0-0.3-0.1c-1.1-0.8-1.7-2.2-1.8-3.3"/>
			<path class="st6" d="M27.1,26.2c0.1,0.1,0.2,0.1,0.3,0.1c0.2,0,0.3-0.1,0.5-0.2c0.2-0.3,0.1-0.6-0.1-0.8
				c-0.8-0.6-1.3-1.8-1.4-2.7c0-0.2-0.2-0.4-0.4-0.5c-0.2,0.3-0.4,0.5-0.7,0.8C25.5,24,26,25.4,27.1,26.2z"/>
		</g>
		<g>
			<path class="st6" d="M30.2,32.5c-1.1-0.2-2.4-0.7-3.2-1.8c-0.2-0.3-0.1-0.6,0.1-0.8c0.3-0.2,0.6-0.1,0.8,0.1
				c0.6,0.8,1.8,1.3,2.7,1.4c0.2,0,0.4,0.2,0.5,0.4"/>
			<path class="st6" d="M30.6,31.4c-0.9-0.1-2.1-0.6-2.7-1.4c-0.2-0.3-0.5-0.3-0.8-0.1c-0.3,0.2-0.3,0.5-0.1,0.8
				c0.8,1.1,2.1,1.6,3.2,1.8c0.3-0.2,0.6-0.4,0.8-0.6C31,31.6,30.8,31.4,30.6,31.4z"/>
		</g>
		<g>
			<path class="st6" d="M21.5,27.9c0.2,0.1,0.4,0.2,0.4,0.5c0.1,0.6,0.4,1.3,0.9,1.7c0.3,0.2,0.3,0.5,0.1,0.8
				c-0.1,0.2-0.3,0.2-0.5,0.2c-0.1,0-0.2,0-0.3-0.1c-0.7-0.5-1.1-1.4-1.3-2.1"/>
			<path class="st6" d="M22.2,31c0.1,0.1,0.2,0.1,0.3,0.1c0.2,0,0.3-0.1,0.5-0.2c0.2-0.3,0.1-0.6-0.1-0.8C22.3,29.7,22,29,22,28.4
				c0-0.2-0.2-0.4-0.4-0.5c-0.2,0.3-0.4,0.6-0.6,0.9C21,29.6,21.4,30.5,22.2,31z"/>
		</g>
		<g>
			<path class="st6" d="M23.3,37.2c-0.8-0.1-1.8-0.5-2.4-1.3c-0.2-0.3-0.1-0.6,0.1-0.8c0.3-0.2,0.6-0.1,0.8,0.1
				c0.4,0.5,1.1,0.8,1.7,0.9c0.3,0,0.5,0.3,0.5,0.6c0,0,0,0,0,0"/>
			<path class="st6" d="M23.5,36.1c-0.6-0.1-1.3-0.4-1.7-0.9c-0.2-0.3-0.5-0.3-0.8-0.1c-0.3,0.2-0.3,0.5-0.1,0.8
				c0.6,0.8,1.6,1.2,2.4,1.3c0.2-0.1,0.4-0.3,0.7-0.4c0,0,0,0,0,0C24.1,36.4,23.8,36.1,23.5,36.1z"/>
		</g>
	</g>
</g>
</svg>
