<?xml version="1.0" encoding="utf-8"?>
<!-- Generator: Adobe Illustrator 21.0.0, SVG Export Plug-In . SVG Version: 6.00 Build 0)  -->
<svg version="1.1" id="Capa_1" xmlns="http://www.w3.org/2000/svg" xmlns:xlink="http://www.w3.org/1999/xlink" x="0px" y="0px"
	 viewBox="0 0 56.7 56.7" style="enable-background:new 0 0 56.7 56.7;" xml:space="preserve">
<style type="text/css">
	.st0{fill:#FFFFFF;}
	.st1{fill:#659C35;}
	.st2{fill:#D13834;}
	.st3{fill:#88C057;}
	.st4{fill:#F75B57;}
</style>
<circle class="st0" cx="28.4" cy="28.3" r="26.9"/>
<g>
	<path class="st1" d="M37.6,16.9c-0.1,0-0.3-0.1-0.4-0.2c-0.2-0.2-0.2-0.6,0-0.8c0.6-0.6,0.9-1.3,0.8-1.7c-0.1-0.3-0.3-0.5-0.8-0.7
		c-0.3-0.1-0.4-0.4-0.3-0.7c0.1-0.3,0.4-0.4,0.7-0.3c1,0.4,1.4,1,1.5,1.5c0.2,0.8-0.2,1.9-1.1,2.8C37.9,16.8,37.7,16.9,37.6,16.9z"
		/>
	<path class="st2" d="M31.4,21c-0.1,0.3-0.2,0.5-0.2,0.9c-2,8.6-9.2,13.2-17.3,17.7c-0.4,0.2-0.4,0.8-0.1,0.8
		c5.2-0.8,18.9,0.5,25.6-15.1c0,0,3.5-7.2-1-8.4C38.4,16.8,32.3,14,31.4,21z"/>
	<path class="st3" d="M40.7,22.3c0.5-2.3,0.5-5-2.2-5.7c0,0-6-2.8-7.4,3.5c1.4-0.1,3.3-0.4,3.8-1.1c0,0,1.2,1.2,0.6,3
		c0,0,2.6-0.3,2.4-2.4c0,0,1.6,1.4,1.2,3.6C39.2,23.2,40,23,40.7,22.3z"/>
	<path class="st4" d="M21.7,38.2c-0.2,0-0.5-0.2-0.5-0.4c-0.1-0.3,0.1-0.6,0.4-0.7C33.6,33.2,35,24.9,35,24.8c0-0.3,0.3-0.5,0.6-0.5
		c0.3,0,0.5,0.3,0.5,0.6c-0.1,0.4-1.5,9.1-14.3,13.2C21.8,38.2,21.7,38.2,21.7,38.2z"/>
</g>
</svg>
