<?xml version="1.0" encoding="utf-8"?>
<!-- Generator: Adobe Illustrator 21.0.0, SVG Export Plug-In . SVG Version: 6.00 Build 0)  -->
<svg version="1.1" id="Capa_1" xmlns="http://www.w3.org/2000/svg" xmlns:xlink="http://www.w3.org/1999/xlink" x="0px" y="0px"
	 viewBox="0 0 56.7 56.7" style="enable-background:new 0 0 56.7 56.7;" xml:space="preserve">
<style type="text/css">
	.st0{fill:#FFFFFF;}
	.st1{fill:#9777A8;}
	.st2{fill:#583E68;}
	.st3{fill:#6F58A8;}
	.st4{fill:#88C057;}
	.st5{fill:#7A3726;}
</style>
<circle class="st0" cx="28.4" cy="28.3" r="26.9"/>
<g>
	<circle class="st1" cx="18.1" cy="39" r="3.3"/>
	<circle class="st2" cx="20.3" cy="27.4" r="3.3"/>
	<path class="st2" d="M23.7,34.6c-1.4,0-2.7,0.9-3.1,2.2c0.6,0.6,0.9,1.4,0.9,2.3c0,0.4-0.1,0.8-0.2,1.2c0.6,0.7,1.5,1.1,2.4,1.1
		c1.8,0,3.3-1.5,3.3-3.3C27,36.1,25.5,34.6,23.7,34.6z"/>
	<path class="st3" d="M20.5,36.8c0.3-0.9,1-1.6,1.9-1.9c0.1-0.3,0.1-0.5,0.1-0.8c0-1.8-1.5-3.3-3.3-3.3c-1.8,0-3.3,1.5-3.3,3.3
		c0,0.8,0.3,1.5,0.7,2c0.5-0.2,1-0.4,1.5-0.4c1.1,0,2,0.5,2.6,1.3C20.7,36.9,20.6,36.8,20.5,36.8z"/>
	<path class="st3" d="M29.2,32.9c-1.6,0-2.9,1.1-3.3,2.6c0.6,0.6,1,1.5,1,2.4c0,0.3,0,0.5-0.1,0.7c0.6,0.6,1.4,0.9,2.3,0.9
		c1.8,0,3.3-1.5,3.3-3.3S31.1,32.9,29.2,32.9z"/>
	<path class="st1" d="M27.8,33.3c0.2-0.4,0.3-0.9,0.3-1.5c0-1.8-1.5-3.3-3.3-3.3c-0.5,0-1,0.1-1.4,0.3c-0.3,0.7-0.9,1.2-1.6,1.6
		c-0.2,0.4-0.3,0.8-0.3,1.2c0.7,0.6,1.1,1.5,1.1,2.5c0,0.1,0,0.2,0,0.2c0.2,0.1,0.3,0.3,0.5,0.4c0.2,0,0.4-0.1,0.6-0.1
		c0.6,0,1.2,0.2,1.7,0.5c0.3-0.1,0.6-0.2,0.8-0.3C26.6,34.1,27.1,33.6,27.8,33.3z"/>
	<path class="st2" d="M30.3,27.4c-0.4,0-0.8,0.1-1.2,0.2c-0.2,0.9-0.9,1.7-1.7,2.2c0,0,0,0,0,0c0.4,0.6,0.7,1.3,0.7,2
		c0,0.4-0.1,0.8-0.2,1.2c0.1,0.1,0.1,0.1,0.2,0.2c0.4-0.1,0.8-0.2,1.2-0.2c0.9,0,1.7,0.3,2.3,0.9c1.3-0.5,2.2-1.7,2.2-3.1
		C33.7,28.8,32.2,27.4,30.3,27.4z"/>
	<path class="st1" d="M34.8,30.7c-0.4,0-0.8,0.1-1.1,0.2c-0.1,1.3-1,2.5-2.2,2.9c0,0,0,0,0,0c0.7,0.6,1.1,1.5,1.1,2.5
		c0,0.1,0,0.2,0,0.2c0.6,0.5,1.4,0.9,2.2,0.9c1.8,0,3.3-1.5,3.3-3.3C38.1,32.2,36.6,30.7,34.8,30.7z"/>
	<path class="st2" d="M35.9,25.1c-0.2,0-0.4,0-0.6,0.1c-0.3,1.3-1.3,2.4-2.7,2.7c0,0.1,0,0.2,0,0.4c0.7,0.6,1.1,1.5,1.1,2.5
		c0,0.1,0,0.2,0,0.2c0,0,0.7-0.2,1.1-0.2c0.9,0,1.7,0.3,2.3,0.9c1.3-0.5,2.2-1.7,2.2-3.1C39.2,26.6,37.7,25.1,35.9,25.1z"/>
	<path class="st1" d="M28.7,17.9c-1.4,0-2.5,0.8-3.1,2c0.2,0.4,0.3,0.9,0.3,1.3s-0.1,0.9-0.3,1.3c0.1,0.3,0.4,0.6,0.6,0.9
		c0.8,0.1,1.6,0.5,2.1,1.1c0.1,0,0.2,0,0.3,0c0-1.8,1.5-3.3,3.3-3.3C32,19.4,30.5,17.9,28.7,17.9z"/>
	<path class="st3" d="M22.6,17.9c-1.8,0-3.3,1.5-3.3,3.3c0,1.2,0.6,2.2,1.5,2.8c0.5,0.1,1,0.2,1.4,0.5c0.1,0,0.3,0,0.4,0
		c1.8,0,3.3-1.5,3.3-3.3S24.4,17.9,22.6,17.9z"/>
	<path class="st3" d="M28.7,25C28.7,25,28.7,25,28.7,25L28.7,25c-0.6-0.9-1.6-1.5-2.8-1.5c-0.4,0-0.7,0.1-1,0.2
		c-0.4,0.4-0.8,0.6-1.3,0.8c-0.3,0.2-0.5,0.5-0.6,0.8c0.5,0.6,0.7,1.3,0.7,2.1c0,0.5-0.1,1-0.3,1.5c0,0,0,0,0,0
		c0.4-0.2,0.9-0.3,1.4-0.3c1.1,0,2,0.5,2.6,1.3c1.1-0.6,1.8-1.7,1.8-3c0-0.1,0-0.3,0-0.4C28.9,26,28.8,25.5,28.7,25z"/>
	<path class="st3" d="M32,21.2c-1.8,0-3.3,1.5-3.3,3.3c0,1.2,0.6,2.2,1.5,2.8c0.1,0,0.1,0,0.2,0c0.7,0,1.3,0.2,1.8,0.5
		c1.8-0.1,3.2-1.5,3.2-3.3C35.3,22.7,33.9,21.2,32,21.2z"/>
	<path class="st4" d="M45.9,26.2c-3.7,0-6.7-3-6.7-6.7C42.9,19.6,45.9,22.5,45.9,26.2z"/>
	<path class="st5" d="M33.7,22.3v-1.1c4,0,7.2-4,7.2-8.9H42C42,17.9,38.3,22.3,33.7,22.3z"/>
</g>
</svg>
