<?xml version="1.0" encoding="utf-8"?>
<!-- Generator: Adobe Illustrator 21.0.0, SVG Export Plug-In . SVG Version: 6.00 Build 0)  -->
<svg version="1.1" id="Capa_1" xmlns="http://www.w3.org/2000/svg" xmlns:xlink="http://www.w3.org/1999/xlink" x="0px" y="0px"
	 viewBox="0 0 56.7 56.7" style="enable-background:new 0 0 56.7 56.7;" xml:space="preserve">
<style type="text/css">
	.st0{fill:#FFFFFF;}
	.st1{fill:#F4C44E;}
	.st2{fill:#F9EA80;}
	.st3{fill:#F9DA49;}
	.st4{fill:#F9D70B;}
</style>
<circle class="st0" cx="28.4" cy="28.3" r="26.9"/>
<g>
	<path class="st1" d="M45.5,30.5H19.4c0,7.2,5.8,13.1,13.1,13.1S45.5,37.7,45.5,30.5z"/>
	<path class="st2" d="M43,30.5H21.9c0,5.8,4.7,10.6,10.6,10.6S43,36.3,43,30.5z"/>
	<rect x="31.8" y="30.5" class="st3" width="1.2" height="10.6"/>
	
		<rect x="35.6" y="28.9" transform="matrix(0.7071 -0.7071 0.7071 0.7071 -13.5967 35.6022)" class="st3" width="1.2" height="10.6"/>
	
		<rect x="23.4" y="33.6" transform="matrix(0.7071 -0.7071 0.7071 0.7071 -15.7832 30.3227)" class="st3" width="10.6" height="1.2"/>
	<path class="st4" d="M41.1,18.2l0.2-0.2c1-1,1-2.6,0-3.5s-2.6-1-3.5,0l-0.1,0.1c-5.7-3.8-14.4-2.3-20.5,3.8s-7.6,14.9-3.8,20.5
		l-0.1,0.1c-1,1-1,2.6,0,3.5s2.6,1,3.5,0l0.2-0.2c3.5,2.1,7.9,2.3,12.2,0.8c-5.7-1.4-9.8-6.5-9.8-12.6h22.5
		C43.4,26.2,43.2,21.7,41.1,18.2z M31.8,16.8c-0.3,0.7-1,1-1.7,0.8c0.4,0.1-0.1,0-0.1,0c-0.1,0-0.2,0-0.3,0c0,0-0.1,0-0.1,0
		c0,0,0,0-0.1,0c-0.1,0-0.2,0-0.3,0c-0.7,0.1-1.4-0.4-1.5-1.1c-0.1-0.7,0.4-1.4,1.1-1.5c0.8-0.1,1.5-0.1,2.2,0.1
		C31.7,15.3,32,16.2,31.8,16.8z"/>
</g>
</svg>
