<?xml version="1.0" encoding="utf-8"?>
<!-- Generator: Adobe Illustrator 21.0.0, SVG Export Plug-In . SVG Version: 6.00 Build 0)  -->
<svg version="1.1" id="Capa_1" xmlns="http://www.w3.org/2000/svg" xmlns:xlink="http://www.w3.org/1999/xlink" x="0px" y="0px"
	 viewBox="0 0 56.7 56.7" style="enable-background:new 0 0 56.7 56.7;" xml:space="preserve">
<style type="text/css">
	.st0{fill:#FFFFFF;}
	.st1{fill:#ED8F20;}
	.st2{fill:#EF771D;}
	.st3{fill:#9B6026;}
	.st4{fill:#659C35;}
	.st5{fill:#88C057;}
</style>
<circle class="st0" cx="28.4" cy="28.3" r="26.9"/>
<g>
	<path class="st1" d="M35.6,18.5l-3.1-0.2l1.1-2.9c0.2-0.4,0.4-0.9,0.7-1.3c-1.8-0.8-3.8-1.2-5.9-1.2c-8.1,0-14.6,6.6-14.6,14.6
		S20.3,42,28.3,42s14.6-6.6,14.6-14.6c0-3.7-1.4-7-3.6-9.7C38.3,18.4,37,18.6,35.6,18.5z"/>
	<circle class="st2" cx="36.9" cy="21.9" r="1.2"/>
	<circle class="st2" cx="40" cy="28.7" r="1.2"/>
	<circle class="st2" cx="39.9" cy="24.9" r="1.2"/>
	<circle class="st2" cx="36.2" cy="27.3" r="1.2"/>
	<circle class="st2" cx="36.9" cy="31.6" r="1.2"/>
	<circle class="st2" cx="25.9" cy="17" r="1.2"/>
	<circle class="st2" cx="21.6" cy="18.8" r="1.2"/>
	<g>
		<path class="st1" d="M30.3,17.6c0,0,2.6,0.4,3.3,2.2"/>
		<path class="st3" d="M33.6,20.4c-0.2,0-0.4-0.1-0.5-0.4c-0.5-1.4-2.9-1.9-2.9-1.9c-0.3-0.1-0.5-0.3-0.5-0.7
			c0.1-0.3,0.3-0.5,0.7-0.5c0.1,0,3,0.5,3.7,2.5c0.1,0.3,0,0.7-0.3,0.8C33.7,20.4,33.6,20.4,33.6,20.4z"/>
	</g>
	<g>
		<path class="st1" d="M30.6,19.5c0.7-0.7,1.4-1.2,2.3-1.5"/>
		<path class="st3" d="M30.6,20.1c-0.1,0-0.3,0-0.4-0.1c-0.2-0.2-0.2-0.7,0-0.9c0.7-0.8,1.5-1.3,2.5-1.8c0.3-0.1,0.7,0,0.8,0.3
			s0,0.7-0.3,0.8c-0.8,0.3-1.5,0.8-2.1,1.4C30.9,20,30.8,20.1,30.6,20.1z"/>
	</g>
	<path class="st4" d="M44.3,10.9l-3.1-0.2c-3.3-0.2-6.4,1.6-7.6,4.7l-1.1,2.9l3.1,0.2c3.3,0.2,6.4-1.6,7.6-4.7L44.3,10.9z"/>
	<path class="st5" d="M32.8,17.4l-0.3,0.9h0.4c3.8-3.7,8-4.9,8.4-4.9V13l0.2,0.2l0.1-0.3l-0.2-0.2C41,12.4,36.8,13.6,32.8,17.4z"/>
</g>
</svg>
