<?xml version="1.0" encoding="utf-8"?>
<!-- Generator: Adobe Illustrator 21.0.0, SVG Export Plug-In . SVG Version: 6.00 Build 0)  -->
<svg version="1.1" id="Capa_1" xmlns="http://www.w3.org/2000/svg" xmlns:xlink="http://www.w3.org/1999/xlink" x="0px" y="0px"
	 viewBox="0 0 56.7 56.7" style="enable-background:new 0 0 56.7 56.7;" xml:space="preserve">
<style type="text/css">
	.st0{fill:#FFFFFF;}
	.st1{fill:#D6A550;}
	.st2{fill:#88C057;}
	.st3{fill:#659C35;}
	.st4{fill:#A4E869;}
	.st5{fill:#F4C44E;}
</style>
<circle class="st0" cx="28.4" cy="28.3" r="26.9"/>
<g>
	<path class="st1" d="M29,21.5c10.5,0,10.4,5.6,10.4,12.4S34.8,46.3,29,46.3h-0.3c-5.8,0-10.4-5.6-10.4-12.4s-0.1-12.4,10.4-12.4"/>
	<g>
		<path class="st2" d="M31.5,17.8c0.3-0.4,0.7-0.8,1.1-1.2c0.5-3,4.1-5.4,6.6-6.1c0,0-2.2-1.8-4.9-1.5c-2.8,0.3-4.4,1.7-5.3,3.3
			C31,13.8,31.4,16.1,31.5,17.8z"/>
	</g>
	<path class="st3" d="M25.4,21.7c1-0.1,2.1-0.2,3.3-0.2h0c0,0,0.1-3.3-3.3-3.9s-3.9,1.3-3.9,1.3C24.5,19.6,25.3,21,25.4,21.7z"/>
	<path class="st3" d="M32.9,21.8c0.5-1,3.1-3.4,6.4-4.2c0,0-1.2-2.6-4.6-2c-3.4,0.6-5.2,5.9-5.2,5.9s0,0,0,0
		C30.8,21.5,31.9,21.6,32.9,21.8z"/>
	<path class="st4" d="M27.2,18.3c1.5,1.1,1.5,2.9,1.5,3.2c0.2,0,0.4,0,0.7,0c0.1-0.3,0.7-1.8,1.7-3.2c0-0.1,0.1-0.1,0.1-0.2
		c0-0.1,0.1-0.1,0.1-0.2c0,0,0.1-0.1,0.1-0.1c-0.1-2.4-1-6.2-6-6.7c-2.5-0.3-4.6,1.3-4.6,1.3C23.5,12.9,27.2,15.4,27.2,18.3
		L27.2,18.3z"/>
	<g>
		<polygon class="st5" points="24.2,38.2 21.8,40.6 22.7,41.5 24.2,40 25.7,41.5 26.6,40.6 		"/>
		<polygon class="st5" points="26.4,43.9 27.3,44.8 28.8,43.3 30.3,44.8 31.2,43.9 28.8,41.5 		"/>
		<polygon class="st5" points="30.9,40.6 31.9,41.5 33.4,40 34.9,41.5 35.8,40.6 33.4,38.2 		"/>
		<polygon class="st5" points="22.7,36.3 24.2,34.8 25.7,36.3 26.6,35.4 24.2,33 21.8,35.4 		"/>
		<polygon class="st5" points="28.8,37.4 30.3,38.9 31.2,38 28.8,35.6 26.4,38 27.3,38.9 		"/>
		<polygon class="st5" points="19.7,35.6 18.6,36.7 19.5,37.6 19.7,37.4 21.2,38.9 22.1,38 		"/>
		<polygon class="st5" points="33.4,34.8 34.9,36.3 35.8,35.4 33.4,33 30.9,35.4 31.9,36.3 		"/>
		<polygon class="st5" points="21.8,30.2 22.7,31.1 24.2,29.6 25.7,31.1 26.6,30.2 24.2,27.7 		"/>
		<polygon class="st5" points="28.8,32.2 30.3,33.7 31.2,32.8 28.8,30.4 26.4,32.8 27.3,33.7 		"/>
		<polygon class="st5" points="33.4,27.7 30.9,30.2 31.9,31.1 33.4,29.6 34.9,31.1 35.8,30.2 		"/>
		<polygon class="st5" points="24.2,24.4 25.7,25.9 26.6,24.9 24.2,22.5 21.8,24.9 22.7,25.9 		"/>
		<polygon class="st5" points="27.3,28.5 28.8,27 30.3,28.5 31.2,27.6 28.8,25.1 26.4,27.6 		"/>
		<polygon class="st5" points="33.4,24.4 34.9,25.9 35.8,24.9 33.4,22.5 30.9,24.9 31.9,25.9 		"/>
		<path class="st5" d="M38.5,25.7L38,25l-2.5,2.5l0.9,0.9l1.4-1.4l0.9,1.3l0.5-0.3C39,27.2,38.8,26.4,38.5,25.7z"/>
		<path class="st5" d="M37.8,35.7L35.5,38l0.9,0.9l1.6-1.6l0.9,0.4c0.1-0.4,0.2-0.9,0.3-1.3L37.8,35.7z"/>
		<path class="st5" d="M19.5,25.2c-0.3,0.5-0.4,0.9-0.6,1.5l0.5,0.5l0.2-0.2l1.5,1.5l0.9-0.9L19.5,25.2L19.5,25.2z"/>
		<path class="st5" d="M39.5,31.9l-1.5-1.5l-2.4,2.4l0.9,0.9l1.5-1.5l0.8,0.8l0.7-0.7C39.5,32.2,39.5,32,39.5,31.9z"/>
		<path class="st5" d="M18.3,31.7c0,0.3,0,0.6,0,0.9l0.5,0.5l0.8-0.8l1.5,1.5l0.9-0.9l-2.4-2.4L18.3,31.7z"/>
	</g>
</g>
</svg>
