<?xml version="1.0" encoding="utf-8"?>
<!-- Generator: Adobe Illustrator 21.0.0, SVG Export Plug-In . SVG Version: 6.00 Build 0)  -->
<svg version="1.1" id="Capa_1" xmlns="http://www.w3.org/2000/svg" xmlns:xlink="http://www.w3.org/1999/xlink" x="0px" y="0px"
	 viewBox="0 0 56.7 56.7" style="enable-background:new 0 0 56.7 56.7;" xml:space="preserve">
<style type="text/css">
	.st0{fill:#FFFFFF;}
	.st1{fill:#D75A4A;}
	.st2{fill:#88C057;}
	.st3{fill:#659C35;}
	.st4{fill:#7A3726;}
	.st5{fill:#E6E6E6;}
</style>
<circle class="st0" cx="28.4" cy="28.3" r="26.9"/>
<g>
	<g>
		<path class="st1" d="M29.1,42.8c-0.4-3.5-2.1-5-5.4-7.8c-2.8-2.3-3.3-3.9-3.1-7c0.4-6.2,8.6-6.2,8.6-6.2H29c0,0,8.1,0,8.6,6.2
			c0.2,3.1-0.4,4.7-3.1,7C31.1,37.8,29.4,39.3,29.1,42.8L29.1,42.8z"/>
	</g>
	<path class="st2" d="M27.4,19.1l-2.8,0.6c-3,0.6-6.1-0.8-7.5-3.5l-1.4-2.5l2.8-0.6c3-0.6,6.1,0.8,7.5,3.5L27.4,19.1z"/>
	<path class="st3" d="M39.9,10.4L37,10.8c-3,0.5-5.4,2.8-5.9,5.9l-0.4,2.9l2.9-0.4c3-0.5,5.4-2.8,5.9-5.9L39.9,10.4z"/>
	<path class="st4" d="M29.7,21.8c-0.2,0-0.4-0.1-0.5-0.3c-1-1.6-1.2-4.7-1.2-4.8c0-0.3,0.2-0.6,0.5-0.6c0.3,0,0.6,0.2,0.6,0.5
		c0,0,0.2,2.9,1.1,4.3c0.2,0.3,0.1,0.6-0.2,0.8C29.9,21.8,29.8,21.8,29.7,21.8z"/>
	<g>
		<g>
			<path class="st5" d="M34.5,35C34.5,35,34.5,35,34.5,35c-1.2-1.7-3.1-2.8-5.4-2.8c-2.2,0-4.2,1.1-5.5,2.8c0,0,0,0,0,0
				c3.3,2.7,5,4.2,5.4,7.5C29.5,39.2,31.2,37.7,34.5,35z"/>
		</g>
		<g>
			<path class="st5" d="M29.1,42.8c0-0.1,0-0.2,0-0.3C29.1,42.6,29.1,42.7,29.1,42.8L29.1,42.8z"/>
		</g>
	</g>
</g>
</svg>
