<?xml version="1.0" encoding="utf-8"?>
<!-- Generator: Adobe Illustrator 21.0.0, SVG Export Plug-In . SVG Version: 6.00 Build 0)  -->
<svg version="1.1" id="Capa_1" xmlns="http://www.w3.org/2000/svg" xmlns:xlink="http://www.w3.org/1999/xlink" x="0px" y="0px"
	 viewBox="0 0 56.7 56.7" style="enable-background:new 0 0 56.7 56.7;" xml:space="preserve">
<style type="text/css">
	.st0{fill:#FFFFFF;}
	.st1{fill:#C62A6A;}
	.st2{fill:#659C35;}
	.st3{fill:#E53384;}
</style>
<circle class="st0" cx="28.4" cy="28.3" r="26.9"/>
<g>
	<path class="st1" d="M40.9,29.2c0.9-0.7,1.5-1.7,1.5-2.9c0-1.4-0.8-2.6-2-3.2c0,0,0,0,0-0.1c0-1.7-1.2-3.1-2.7-3.5
		c-0.4-1.6-1.8-2.7-3.5-2.7c-1.6,0-2.9,1-3.4,2.5c-0.6-1.1-1.8-1.8-3.1-1.8c-1.2,0-2.3,0.6-2.9,1.5c-0.7-0.9-1.7-1.5-2.9-1.5
		c-1.4,0-2.6,0.8-3.2,2c-1.7,0.3-3,1.8-3,3.5c0,0.4,0.1,0.7,0.2,1c-0.9,0.7-1.5,1.7-1.5,2.9c0,1.2,0.6,2.3,1.5,2.9
		c-0.5,0.6-0.8,1.4-0.8,2.3c0,1.8,1.3,3.3,3,3.5c-0.3,0.5-0.4,1.1-0.4,1.7c0,1.7,1.2,3.1,2.7,3.5c0.4,1.6,1.8,2.7,3.5,2.7
		c0.8,0,1.5-0.2,2-0.6c0.6,1.2,1.8,1.9,3.2,1.9c1.3,0,2.4-0.7,3-1.7c0.5,0.2,1,0.4,1.5,0.4c1.9,0,3.4-1.4,3.6-3.3
		c1.8-0.2,3.3-1.7,3.3-3.6c0-0.4-0.1-0.9-0.2-1.3c1.3-0.5,2.2-1.8,2.2-3.3C42.4,30.9,41.8,29.9,40.9,29.2z"/>
	<g>
		<path class="st2" d="M27.7,8.3C27.7,8.3,27.7,8.3,27.7,8.3c0.1,0,0.1,0,0.1,0H27.7z"/>
		<path class="st2" d="M18.9,18.9c0.7-0.9,1.7-1.5,2.9-1.5c1.2,0,2.3,0.6,2.9,1.5c0.7-0.9,1.7-1.5,2.9-1.5c1.3,0,2.5,0.7,3.1,1.8
			c0.5-1.4,1.8-2.5,3.4-2.5c1.3,0,2.4,0.7,3,1.6c1.5-1.1,2.6-2.6,3.2-4.3c-6.5-2.2-8.5,0.7-8.5,0.7c-0.4-4.8-3.7-6.3-4.2-6.5
			c-0.5,0.2-3.8,1.7-4.2,6.5c0,0-2-2.9-8.5-0.7C15.7,16.1,17.1,17.7,18.9,18.9z"/>
	</g>
	<path class="st3" d="M20.7,27.2c-0.8,0-1.7-0.3-2.4-1.1c-0.2-0.3-0.2-0.7,0-0.9c0.3-0.2,0.7-0.2,0.9,0c0.8,0.9,1.8,0.7,2.5,0.3
		c0.6-0.4,1.3-1.2,0.9-2.3c-0.1-0.3,0.1-0.7,0.4-0.8c0.3-0.1,0.7,0.1,0.8,0.4c0.6,1.7-0.3,3.2-1.5,3.9C22,27.1,21.4,27.2,20.7,27.2z
		"/>
	<path class="st3" d="M34.4,35.3c-0.8,0-1.7-0.3-2.4-1.1c-0.2-0.3-0.2-0.7,0-0.9c0.3-0.2,0.7-0.2,0.9,0c0.8,0.9,1.8,0.7,2.5,0.3
		c0.6-0.4,1.3-1.2,0.9-2.3c-0.1-0.3,0.1-0.7,0.4-0.8c0.3-0.1,0.7,0.1,0.8,0.4c0.6,1.7-0.3,3.2-1.5,3.9C35.7,35.1,35,35.3,34.4,35.3z
		"/>
	<path class="st3" d="M23.6,35.7c-0.1,0-0.3,0-0.4,0c-1.3-0.2-2.7-1.2-2.9-3c0-0.4,0.2-0.7,0.6-0.7c0.4,0,0.7,0.2,0.7,0.6
		c0.1,1.2,1,1.7,1.8,1.8c0.7,0.1,1.8-0.2,2.1-1.3c0.1-0.3,0.5-0.5,0.8-0.4c0.3,0.1,0.5,0.5,0.4,0.8C26.1,35.1,24.8,35.7,23.6,35.7z"
		/>
	<path class="st3" d="M29.5,29.6c-0.1,0-0.3,0-0.4,0c-1.3-0.2-2.7-1.2-2.9-3c0-0.4,0.2-0.7,0.6-0.7c0.4,0,0.7,0.2,0.7,0.6
		c0.1,1.2,1,1.7,1.8,1.8c0.7,0.1,1.8-0.2,2.1-1.3c0.1-0.3,0.5-0.5,0.8-0.4c0.3,0.1,0.5,0.5,0.4,0.8C32,29,30.7,29.6,29.5,29.6z"/>
	<path class="st3" d="M28.7,41.1c-0.9,0-1.7-0.3-2.4-1.1C26,39.7,26,39.3,26.3,39c0.3-0.2,0.7-0.2,0.9,0.1c0.8,0.9,1.8,0.8,2.5,0.4
		c0.7-0.4,1.3-1.2,1-2.3c-0.1-0.3,0.1-0.7,0.4-0.8c0.3-0.1,0.7,0.1,0.8,0.4c0.5,1.7-0.5,3.2-1.6,3.8C29.8,40.9,29.2,41.1,28.7,41.1z
		"/>
	<path class="st3" d="M36.6,25.9c-0.6,0-1.2-0.2-1.7-0.5c-1.2-0.7-2.1-2.1-1.5-3.9c0.1-0.3,0.5-0.5,0.8-0.4c0.3,0.1,0.5,0.5,0.4,0.8
		c-0.4,1.1,0.3,1.9,0.9,2.3c0.7,0.4,1.7,0.5,2.5-0.3c0.2-0.3,0.7-0.3,0.9,0c0.3,0.2,0.3,0.7,0,0.9C38.3,25.6,37.4,25.9,36.6,25.9z"
		/>
</g>
</svg>
