<?xml version="1.0" encoding="utf-8"?>
<!-- Generator: Adobe Illustrator 21.0.0, SVG Export Plug-In . SVG Version: 6.00 Build 0)  -->
<svg version="1.1" id="Capa_1" xmlns="http://www.w3.org/2000/svg" xmlns:xlink="http://www.w3.org/1999/xlink" x="0px" y="0px"
	 viewBox="0 0 56.7 56.7" style="enable-background:new 0 0 56.7 56.7;" xml:space="preserve">
<style type="text/css">
	.st0{fill:#FFFFFF;}
	.st1{fill:#88C057;}
	.st2{fill:#659C35;}
</style>
<circle class="st0" cx="28.4" cy="28.3" r="26.9"/>
<g>
	<path class="st1" d="M38.9,26.8c0.9,0.2,1.9,0.2,2.9-0.2c1.8-0.8,3.1-2.5,3.1-4.4c0-2.2-1.3-4.1-3.3-4.7c-0.1-2-1.8-3.6-3.8-3.6
		c0,0,0,0,0,0c0-0.3,0-0.6-0.1-1c-0.3-0.9-1.1-1.6-2.1-1.8c-0.8-0.1-1.5,0.2-2,0.7c-0.5-0.4-1.1-0.7-1.8-0.7c-1.5,0-2.7,1.2-2.7,2.7
		c0,0,0,0,0,0c-1.8,0.1-3.3,1.7-3.3,3.5c0,0.3,0,0.6,0.1,0.8c-2.2,0.1-3.9,1.9-3.9,4.1c0,0.7,0.2,1.4,0.6,2
		c-0.7,0.6-1.1,1.4-1.1,2.3c0,1.3,0.8,2.4,2,2.8c-0.2,5.3,1.8,8.5,5.4,12.7c0.1,0.1,0.1,0.2,0.2,0.2c0,0,0,0,0,0
		c1.5,1.7,5,0.4,4.2-1.8c-4-11.7,8.3-10,8.3-10s0.3-3.5-2.8-3.7C38.9,27,38.9,26.9,38.9,26.8C38.9,26.8,38.9,26.8,38.9,26.8z"/>
	<path class="st2" d="M29.2,42.5C29.2,42.5,29.2,42.5,29.2,42.5c-0.1-0.1-0.2-0.2-0.2-0.3c-3.7-4.2-5.6-7.4-5.4-12.7
		c-1.2-0.4-2-1.5-2-2.8c0-0.9,0.4-1.8,1.1-2.3c-0.3-0.6-0.6-1.3-0.6-2c0-2.2,1.7-4,3.9-4.1c-0.1-0.3-0.1-0.5-0.1-0.8
		c0-1.5,0.9-2.8,2.2-3.3c-0.1-0.3-0.2-0.6-0.3-0.8c-0.7-1.4-2-2.3-3.1-2.1c-0.9,0.2-1.6,0.9-1.9,2c-0.8-0.5-1.7-0.7-2.5-0.5
		c-1.7,0.6-2.2,3-1.3,5.3c0,0,0,0,0,0c-1.8,0.9-2.3,3.5-1.2,5.9c0.2,0.3,0.4,0.7,0.6,1c-2,0.8-2.6,3.4-1.3,5.6
		c0.4,0.7,1,1.3,1.6,1.7c-0.3,0.7-0.2,1.5,0.2,2.3c0.6,1.1,1.8,1.7,2.9,1.7c1.9,3.7,4.2,5.2,7.8,6.7c0,0,0.1,0,0.1,0
		C29.5,42.8,29.3,42.7,29.2,42.5z"/>
	<path class="st2" d="M30.6,25.2c0-0.1,0-0.2,0.1-0.2c0.4-1,0.9-1.9,1.4-2.7c2.6-0.5,4.6,0.3,4.6,0.3c0.1,0,0.2,0,0.2,0
		c0.2,0,0.4-0.1,0.5-0.3c0.1-0.3,0-0.6-0.3-0.8c-0.1,0-1.7-0.7-4-0.5c1.1-1.2,2.1-1.7,2.3-1.8c0.8-0.4,2.1,0.1,2.5,0.4
		c0.1,0.1,0.2,0.1,0.3,0.1c0.2,0,0.4-0.1,0.5-0.3c0.2-0.3,0.1-0.6-0.2-0.8c-0.1,0-1.4-0.8-2.7-0.6c0.1-0.5,0.4-0.9,0.5-1.1
		c0.2-0.3,0.1-0.6-0.1-0.8c-0.3-0.2-0.6-0.1-0.8,0.1c0,0-0.8,1.1-0.8,2.2c-0.8,0.5-3,2.1-4.5,5.2c-0.1,0.2-0.2,0.4-0.2,0.5
		c-1.6-1.1-1.3-3-1.3-3.1c0-0.3-0.2-0.6-0.5-0.7c-0.3-0.1-0.6,0.2-0.7,0.5c-0.2,1.1,0.1,3.2,2,4.4c-0.4,1.3-0.8,2.8-0.9,4.6
		c0,0.1,0,0.1,0,0.2c-0.1,1.3,0,2.6,0.2,4.2c-0.7-0.4-1.1-1-1.1-1c-0.2-0.3-0.5-0.4-0.8-0.2c-0.3,0.1-0.4,0.5-0.2,0.8
		c0,0.1,0.7,1.3,2.3,1.8c0.4,2.3,1.2,4.9,2.4,7.8c0.4,0,0.8-0.1,1.1-0.3c0,0,0,0,0,0c-1.3-3-2-5.7-2.4-8c0,0,0,0,0,0
		c-0.3-1.8-0.4-3.3-0.3-4.7c0.8-1.4,3.2-1.4,3.2-1.4c0.3,0,0.6-0.3,0.6-0.6c0-0.3-0.3-0.6-0.6-0.6c0,0,0,0,0,0c-0.1,0-1.7,0-3.1,0.9
		c0.2-1.1,0.4-2.2,0.8-3.1C30.5,25.3,30.5,25.3,30.6,25.2z"/>
</g>
</svg>
