<?xml version="1.0" encoding="utf-8"?>
<!-- Generator: Adobe Illustrator 21.0.0, SVG Export Plug-In . SVG Version: 6.00 Build 0)  -->
<svg version="1.1" id="Capa_1" xmlns="http://www.w3.org/2000/svg" xmlns:xlink="http://www.w3.org/1999/xlink" x="0px" y="0px"
	 viewBox="0 0 56.7 56.7" style="enable-background:new 0 0 56.7 56.7;" xml:space="preserve">
<style type="text/css">
	.st0{fill:#FFFFFF;}
	.st1{fill:#88C057;}
	.st2{fill:#D13834;}
	.st3{fill:#ED7161;}
</style>
<circle class="st0" cx="28.4" cy="28.3" r="26.9"/>
<g>
	<path class="st1" d="M36.4,15.8c-1.5-1-4.4-2.4-7.1-1.1c-0.2,0.1-0.6-0.1-0.6-0.3v-2.5c0-0.6-0.3-1-0.9-1h-1.3
		c-0.4,0-0.9,0.4-0.9,1v2.7c0,0.2-0.2,0.4-0.4,0.3c-1.1-0.2-3.9-0.6-6.7,1c-0.3,0.2-0.1,0.8,0.2,0.8c1.2-0.2,2.9-0.4,4.2,0
		c0.3,0.1,0.3,0.6,0.1,0.7c-0.8,0.6-2.2,1.8-3.3,3.9c-0.1,0.3,0.3,0.7,0.7,0.4c1.2-1,3.3-2.5,5-2.2c0.2,0,0.3,0.2,0.3,0.4
		c0,1.1,0,5.2,1,6.6c0.1,0.2,0.4,0.2,0.7,0c0.6-0.9,1.9-3,1.9-6.6c0-0.2,0.2-0.4,0.4-0.4c0.9,0,2.9,0.2,4.6,1.9
		c0.2,0.2,0.7,0,0.7-0.3c-0.1-1-0.7-2.6-2.7-3.8c-0.3-0.2-0.2-0.7,0.1-0.8c0.7-0.2,1.9-0.3,3.9-0.2C36.6,16.6,36.7,16,36.4,15.8z"/>
	<path class="st2" d="M36.9,16.7c0,0-0.1-0.1-0.2-0.1c-0.2,0-0.4,0-0.7-0.1c-0.1,0-0.2,0-0.2,0c-1.7,0-2.8,0.1-3.5,0.2
		c-0.3,0.1-0.4,0.6-0.1,0.8c2,1.2,2.6,2.7,2.7,3.8c0,0.3-0.4,0.6-0.7,0.3c-1.7-1.6-3.7-1.9-4.6-1.9c-0.2,0-0.4,0.2-0.4,0.4
		c0,3.5-1.2,5.7-1.9,6.6c-0.1,0.2-0.6,0.2-0.7,0c-1-1.5-1-5.5-1-6.6c0-0.2-0.1-0.3-0.3-0.4c-1.8-0.2-3.8,1.1-5,2.2
		c-0.3,0.2-0.8-0.1-0.7-0.4c1-2.2,2.5-3.5,3.3-3.9c0.2-0.2,0.2-0.6-0.1-0.7c-0.2-0.1-0.4-0.1-0.7-0.2h-0.1c-1.5,0.2-2.8,0.4-4.2,0.8
		c-0.1,0-0.1,0-0.1,0.1c-3,2.5-4.9,6.1-4.9,10.1c0,7.5,6.7,13.7,15,13.7s15-6.2,15-13.7C42.8,23.2,40.6,19.3,36.9,16.7z"/>
	<path class="st3" d="M16,31.3c-0.2,0-0.4-0.1-0.6-0.3c-0.4-0.8-0.8-1.6-0.9-2.5c0-0.3,0.2-0.7,0.4-0.7c0.3,0,0.7,0.2,0.7,0.4
		c0.1,0.7,0.3,1.5,0.7,2c0.1,0.2,0.1,0.7-0.2,0.8C16.2,31.3,16.1,31.3,16,31.3z"/>
	<path class="st3" d="M15.3,26.6L15.3,26.6c-0.3,0-0.6-0.3-0.6-0.7c0-0.8,0.2-1.6,0.4-2.2c0.1-0.3,0.4-0.4,0.8-0.3
		c0.3,0.1,0.4,0.4,0.3,0.8c-0.2,0.6-0.3,1.2-0.4,1.9C15.9,26.4,15.7,26.6,15.3,26.6z"/>
</g>
</svg>
