<?xml version="1.0" encoding="utf-8"?>
<!-- Generator: Adobe Illustrator 21.0.0, SVG Export Plug-In . SVG Version: 6.00 Build 0)  -->
<svg version="1.1" id="Capa_1" xmlns="http://www.w3.org/2000/svg" xmlns:xlink="http://www.w3.org/1999/xlink" x="0px" y="0px"
	 viewBox="0 0 56.7 56.7" style="enable-background:new 0 0 56.7 56.7;" xml:space="preserve">
<style type="text/css">
	.st0{fill:#FFFFFF;}
	.st1{fill:#88C057;}
	.st2{fill:#E22F37;}
	.st3{fill:#231F20;}
</style>
<circle class="st0" cx="28.4" cy="28.3" r="26.9"/>
<g>
	<path class="st1" d="M26.2,26.9l0.8,2.6c0.1,0.6-0.3,1.3-1,1.5l-0.6,0.2l-0.2,0.6c-0.2,0.7-0.8,1.3-1.5,1.5C23,33.4,21.6,32,21,32
		l-5.3,5.3c6.7,6.2,17.1,6.1,23.6-0.4S46,20,39.7,13.3L26.2,26.9z"/>
	<path class="st2" d="M36.7,16.3L26.2,26.9l0.8,2.6c0.1,0.6-0.3,1.3-1,1.5l-0.6,0.2l-0.2,0.6c-0.2,0.7-0.8,1.3-1.5,1.5
		C23,33.4,21.6,32,21,32l-2.3,2.3c0,0,0,0,0,0c5,5.4,12.7,4.9,17.8-0.2S42.1,21.3,36.7,16.3C36.7,16.3,36.7,16.3,36.7,16.3z"/>
	<circle class="st3" cx="18.3" cy="22.9" r="0.8"/>
	<circle class="st3" cx="25.1" cy="35.4" r="0.8"/>
	<circle class="st3" cx="30.4" cy="27.8" r="0.8"/>
	<circle class="st3" cx="33.2" cy="25" r="0.8"/>
	<circle class="st3" cx="31.6" cy="34.6" r="0.8"/>
	<circle class="st3" cx="34.4" cy="31.8" r="0.8"/>
	<circle class="st3" cx="37.2" cy="29" r="0.8"/>
	<circle class="st3" cx="36" cy="22.2" r="0.8"/>
	<circle class="st3" cx="28.4" cy="33.8" r="0.8"/>
	<circle class="st3" cx="31.3" cy="30.8" r="0.8"/>
	<circle class="st3" cx="34.1" cy="28" r="0.8"/>
	<circle class="st3" cx="20" cy="28.6" r="0.8"/>
	<circle class="st3" cx="23.4" cy="24.1" r="0.8"/>
	<circle class="st3" cx="36.8" cy="25.4" r="0.8"/>
</g>
</svg>
